<?xml version="1.0" encoding="UTF-8"?>
<!DOCTYPE svg PUBLIC "-//W3C//DTD SVG 1.1//EN" "http://www.w3.org/Graphics/SVG/1.1/DTD/svg11.dtd">
<!-- Creator: CorelDRAW 2018 (64-Bit) -->
<svg xmlns="http://www.w3.org/2000/svg" xml:space="preserve" width="20.0885mm" height="20.0886mm" version="1.1" style="shape-rendering:geometricPrecision; text-rendering:geometricPrecision; image-rendering:optimizeQuality; fill-rule:evenodd; clip-rule:evenodd"
viewBox="0 0 85.89 85.89"
 xmlns:xlink="http://www.w3.org/1999/xlink">
 <defs>
  <style type="text/css">
   <![CDATA[
    .str0 {stroke:white;stroke-width:3.02;stroke-miterlimit:22.9256}
    .fil0 {fill:none}
    .fil1 {fill:white}
   ]]>
  </style>
 </defs>
 <g id="Слой_x0020_1">
  <metadata id="CorelCorpID_0Corel-Layer"/>
  <g id="_2434420992432">
   <circle class="fil0 str0" cx="42.94" cy="42.94" r="41.44"/>
   <g>
    <path class="fil1" d="M46.2 53.64c0.54,-0.66 1.91,-1.13 2.13,0.53 0.11,0.79 0.13,6.59 -0.04,7.22 -0.47,1.73 -2.02,0.6 -2.1,0.21l0.01 -7.97 0 0zm-2.5 -6.73l0 17c0,0.67 0.23,0.48 0.92,0.48 1.77,-0.01 1.59,0.31 1.58,-1.2 0.45,0.26 0.49,0.65 1.47,1.12 0.58,0.28 1.5,0.32 2.06,-0.06 1.07,-0.73 1.1,-2.48 1.1,-4.14l0 -4.69c0,-1.51 -0.03,-3.58 -1,-4.24 -0.99,-0.68 -2.44,-0.24 -3.23,0.65 -0.07,0.08 -0.1,0.14 -0.16,0.2 -0.22,0.2 -0.01,0.05 -0.26,0.16l0.01 -5.74c-0.51,-0.05 -1.02,-0.02 -1.49,-0.02 -0.75,0 -1,-0.21 -1,0.49l-0.01 0z"/>
    <path class="fil1" d="M39.23 62.99l-0 1.35 2.43 0.03 0.01 -13.33 -2.41 -0.03c-0.13,0.65 -0.01,8.37 -0.04,9.81 -0.01,0.55 -0.28,0.84 -0.59,1.09 -1.93,1.55 -1.48,-1.93 -1.48,-2.24 0,-1.22 0.09,-8.4 -0.05,-8.57 -0.09,-0.11 -0.38,-0.09 -0.53,-0.09l-1.81 0.04c-0.13,0.71 -0.04,8.29 -0.04,9.69 0,1.47 -0.11,3.32 1.12,3.72 1.67,0.55 2.94,-1.25 3.38,-1.45l-0 0z"/>
    <path class="fil1" d="M55.1 56.06c-0.07,-1.24 -0.17,-3.02 1.19,-3.01 1.4,0.01 1.27,2.07 1.15,3.05l-2.33 -0.03zm4.81 3.67l-2.47 0c-0.03,0.61 0.04,1.57 -0.2,2.03 -0.26,0.51 -1.01,0.71 -1.57,0.37 -0.78,-0.48 -0.61,-2.89 -0.56,-4.01l4.76 -0.01c0.17,-0.76 0.05,-3.97 -0.17,-4.7 -0.22,-0.73 -0.53,-1.17 -0.88,-1.6 -0.25,-0.31 -1.16,-0.79 -1.67,-0.89 -2.35,-0.46 -4.02,0.84 -4.37,3.07 -0.12,0.77 -0.09,1.66 -0.09,2.48 0,3.34 -0.53,6.77 2.19,7.79 1.21,0.45 2.93,0.35 3.91,-0.58 1.11,-1.06 1.13,-2.45 1.12,-3.95l-0 0z"/>
    <path class="fil1" d="M32.84 39.34l2.63 0.02c0,-1.33 -0.15,-6.78 0.17,-7.83l1.85 -6.1c0.19,-0.64 1.17,-3.69 1.18,-4.06l-2.58 -0.02c-0.18,0.47 -0.32,1.19 -0.45,1.67l-1.14 4.36c-0.04,0.14 -0.08,0.28 -0.11,0.43 -0.14,0.54 0.01,0.19 -0.19,0.43l-0.16 -0.39c-0.05,-0.17 -0.07,-0.64 -0.11,-0.42l-0.72 -2.64c-0.27,-0.96 -0.58,-2.56 -0.97,-3.44l-2.7 -0.01 1.32 3.94c0.7,2.32 1.27,3.75 1.85,6.14 0.28,1.15 0.14,6.47 0.15,7.91l-0 0z"/>
    <path class="fil1" d="M52.53 38c0.08,0.55 0.02,0.79 0.04,1.03 0.02,0.2 -0.02,-0.02 0.03,0.15l0.06 0.12c0.37,0.1 1.89,0.12 2.21,-0.02 0.16,-0.24 0.11,-0.36 0.11,-0.71 -0.02,-1.98 0.09,-11.98 -0.06,-12.62l-2.32 -0.01 -0.03 10.25c-0.16,0.46 -1.83,1.85 -2.12,0.79 -0.27,-0.97 0.09,-9.54 -0.11,-11.02l-2.32 -0.01c-0.11,1.19 -0.02,8.02 -0.02,9.8 0,1.5 -0.16,3.28 1.15,3.67 0.74,0.22 1.51,-0.05 2.02,-0.38 0.58,-0.39 1.09,-0.92 1.36,-1.04l0 0z"/>
    <path class="fil1" d="M41.21 30.18c0,-3.2 1.84,-2.31 2.16,-1.59 0.34,0.76 0.2,5.47 0.2,6.55 0,1.05 -0.14,2.27 -1.25,2.2 -1,-0.06 -1.11,-1.16 -1.11,-2.2l0 -4.96 0 -0zm0.19 -4.23c-0.69,0.22 -0.96,0.22 -1.61,1 -1.35,1.61 -0.97,4.42 -0.97,6.87 0,2.05 -0.08,4.64 2.28,5.47 0.68,0.24 1.56,0.34 2.34,0.09 3.06,-0.97 2.52,-4.4 2.52,-7.86 0,-1.64 0.02,-3.21 -0.78,-4.37 -0.58,-0.85 -2.16,-1.71 -3.78,-1.19l0 -0z"/>
    <path class="fil1" d="M26.01 49l2.78 0.01 0.01 15.35c0.45,0.02 0.89,0.01 1.33,0.01l1.07 0c0.29,-0.04 0.15,-0.03 0.28,-0.11l0.03 -15.25 2.87 -0.01 0.01 -2.53 -8.36 -0.04c-0.11,0.41 -0.1,2.14 -0.01,2.57l-0 0z"/>
   </g>
  </g>
 </g>
</svg>
