<?xml version="1.0" encoding="UTF-8"?>
<!DOCTYPE svg PUBLIC "-//W3C//DTD SVG 1.1//EN" "http://www.w3.org/Graphics/SVG/1.1/DTD/svg11.dtd">
<!-- Creator: CorelDRAW 2018 (64-Bit) -->
<svg xmlns="http://www.w3.org/2000/svg" xml:space="preserve" width="20.0886mm" height="20.0886mm" version="1.1" style="shape-rendering:geometricPrecision; text-rendering:geometricPrecision; image-rendering:optimizeQuality; fill-rule:evenodd; clip-rule:evenodd"
viewBox="0 0 75.89 75.89"
 xmlns:xlink="http://www.w3.org/1999/xlink">
 <defs>
  <style type="text/css">
   <![CDATA[
    .str0 {stroke:white;stroke-width:2.67;stroke-miterlimit:22.9256}
    .fil0 {fill:none}
    .fil1 {fill:#FEFEFF}
   ]]>
  </style>
 </defs>
 <g id="Слой_x0020_1">
  <metadata id="CorelCorpID_0Corel-Layer"/>
  <g id="_2434415170304">
   <circle class="fil0 str0" cx="37.94" cy="37.94" r="36.61"/>
   <path class="fil1" d="M46.38 30.16c-0.12,0.6 -0.57,0.81 -1.06,1.2l-10.88 9.87c-0.54,0.61 -1.78,1.53 -2.49,2.18 -0.63,0.58 -0.45,0.93 -0.51,1.79 -0.05,0.73 -0.1,1.47 -0.16,2.2 -0.07,1.03 -0.39,3.53 -0.25,4.37 1.18,0.05 1.98,-1.22 2.77,-1.97 0.82,-0.78 1.75,-1.53 2.53,-2.36 1.19,0.59 6.07,4.49 7.62,5.56 1.02,0.7 2.28,0.99 2.91,-0.39 0.43,-0.95 2.74,-12.56 3.17,-14.59 0.52,-2.42 1.03,-4.84 1.54,-7.26 0.34,-1.58 2.05,-6.63 -1.29,-5.82l-6.37 2.43c-2.16,0.82 -4.3,1.7 -6.46,2.49 -1.58,0.58 -18.33,6.85 -19.04,7.54 -1.63,1.59 3.14,2.5 5.09,3.12 4.49,1.43 2.99,1.43 6.18,-0.54l13.61 -8.56c0.9,-0.57 1.98,-1.6 3.07,-1.27z"/>
  </g>
 </g>
</svg>
