<?xml version="1.0" encoding="UTF-8"?>
<!DOCTYPE svg PUBLIC "-//W3C//DTD SVG 1.1//EN" "http://www.w3.org/Graphics/SVG/1.1/DTD/svg11.dtd">
<!-- Creator: CorelDRAW 2018 (64-Bit) -->
<svg xmlns="http://www.w3.org/2000/svg" xml:space="preserve" width="17.3747mm" height="17.3747mm" version="1.1" style="shape-rendering:geometricPrecision; text-rendering:geometricPrecision; image-rendering:optimizeQuality; fill-rule:evenodd; clip-rule:evenodd"
viewBox="0 0 69.17 69.17"
 xmlns:xlink="http://www.w3.org/1999/xlink">
 <defs>
  <style type="text/css">
   <![CDATA[
    .str0 {stroke:white;stroke-width:2.81;stroke-miterlimit:22.9256}
    .fil1 {fill:none}
    .fil0 {fill:white}
   ]]>
  </style>
 </defs>
 <g id="Слой_x0020_1">
  <metadata id="CorelCorpID_0Corel-Layer"/>
  <path class="fil0" d="M25.09 29.7c3,0.09 6.13,0.01 9.14,0.01 5.82,0 6.39,-0.58 6.39,2.66 0,1.83 0.15,2.64 -1.97,2.67 -4.46,0.07 -9.07,-0.08 -13.59,0l0.02 -5.34zm21.24 4.26c0.12,-4.38 0.16,-8.5 -5.16,-9.18l-0.48 -0.03 -21.33 -0.07 0.01 22.81 5.71 -0.03 -0.01 -7.39 10.57 0.01 5.01 7.4 6.37 -0 -5.47 -7.42c3.77,-1.12 4.47,-1.93 4.79,-6.1z"/>
  <circle class="fil0" cx="50.31" cy="22.65" r="2.56"/>
  <circle class="fil1 str0" cx="34.59" cy="34.59" r="33.18"/>
 </g>
</svg>
