<?xml version="1.0" encoding="UTF-8"?>
<!DOCTYPE svg PUBLIC "-//W3C//DTD SVG 1.1//EN" "http://www.w3.org/Graphics/SVG/1.1/DTD/svg11.dtd">
<!-- Creator: CorelDRAW 2018 (64-Bit) -->
<svg xmlns="http://www.w3.org/2000/svg" xml:space="preserve" width="17.1787mm" height="17.1787mm" version="1.1" style="shape-rendering:geometricPrecision; text-rendering:geometricPrecision; image-rendering:optimizeQuality; fill-rule:evenodd; clip-rule:evenodd"
viewBox="0 0 54.6 54.6"
 xmlns:xlink="http://www.w3.org/1999/xlink">
 <defs>
  <style type="text/css">
   <![CDATA[
    .str0 {stroke:white;stroke-width:2.24;stroke-miterlimit:22.9256}
    .fil0 {fill:none}
    .fil1 {fill:white}
   ]]>
  </style>
 </defs>
 <g id="Слой_x0020_1">
  <metadata id="CorelCorpID_0Corel-Layer"/>
  <circle class="fil0 str0" cx="27.3" cy="27.3" r="26.18"/>
  <path class="fil1" d="M47.86 26.62c-0.38,-0.18 -3.94,-0.34 -4.76,-0.41 -2.82,-0.25 -5.73,-0.87 -8.14,-2.21 -1.46,-0.81 -2.41,-1.73 -3.45,-2.98 -0.15,-0.18 -0.4,-0.54 -0.54,-0.77 -2.25,-3.68 -2.69,-8.31 -2.82,-12.6 -0.01,-0.4 0.04,-0.86 -0.35,-0.94 -0.21,-0.04 -0.99,-0.04 -1.14,0.06 -0.3,0.2 -0.24,1.87 -0.27,2.35 -0.04,0.78 -0.11,1.61 -0.2,2.37 -0.32,2.83 -0.8,5.72 -2.19,8.16 -0.39,0.69 -0.58,0.92 -1.03,1.53 -1.07,1.43 -2.74,2.61 -4.38,3.36 -2.4,1.11 -5.79,1.64 -8.49,1.8 -0.81,0.05 -1.61,0.11 -2.43,0.14 -0.4,0.01 -0.87,-0.05 -0.96,0.33 -0.05,0.2 -0.05,1 0.03,1.15 0.17,0.31 1.86,0.25 2.36,0.28 2.32,0.17 4.55,0.35 6.78,0.93 3.87,1 7.05,3.16 8.64,6.84 1.51,3.5 1.75,7.13 1.94,10.92 0.02,0.4 -0.03,0.85 0.34,0.95 0.19,0.05 1,0.04 1.14,-0.04 0.33,-0.18 0.25,-1.78 0.3,-2.3 0.23,-2.54 0.25,-4.22 0.93,-6.83 1.04,-3.97 3.11,-6.93 6.86,-8.62 3.21,-1.44 7.38,-1.8 10.93,-1.94 0.43,-0.02 0.87,0.06 0.97,-0.34 0.07,-0.29 0.03,-0.98 -0.05,-1.21z"/>
 </g>
</svg>
