<?xml version="1.0" encoding="UTF-8"?>
<!DOCTYPE svg PUBLIC "-//W3C//DTD SVG 1.1//EN" "http://www.w3.org/Graphics/SVG/1.1/DTD/svg11.dtd">
<!-- Creator: CorelDRAW 2018 (64-Bit) -->
<svg xmlns="http://www.w3.org/2000/svg" xml:space="preserve" width="17.1786mm" height="17.1787mm" version="1.1" style="shape-rendering:geometricPrecision; text-rendering:geometricPrecision; image-rendering:optimizeQuality; fill-rule:evenodd; clip-rule:evenodd"
viewBox="0 0 67.8 67.8"
 xmlns:xlink="http://www.w3.org/1999/xlink">
 <defs>
  <style type="text/css">
   <![CDATA[
    .str0 {stroke:white;stroke-width:2.78;stroke-miterlimit:22.9256}
    .fil0 {fill:none}
    .fil1 {fill:white}
   ]]>
  </style>
 </defs>
 <g id="Слой_x0020_1">
  <metadata id="CorelCorpID_0Corel-Layer"/>
  <circle class="fil0 str0" cx="33.9" cy="33.9" r="32.51"/>
  <path class="fil1" d="M34.7 45.96l0.02 -7.57c2.76,-0.14 6.17,2.47 7.5,4.73 1.02,1.73 0.86,1.87 1.36,2.81l6 0.04c-0.39,-2.84 -3.42,-7.11 -5.67,-8.75 -0.45,-0.33 -0.87,-0.67 -1.38,-1.02 -0.48,-0.33 -1.11,-0.59 -1.57,-0.93 1.58,-1.47 2.13,-1.12 4.63,-4.37 0.92,-1.2 2.65,-4.32 2.72,-6.25l-5.42 -0.04c-0.42,0.78 -0.74,1.96 -1.22,2.84 -1.13,2.04 -4.18,5.7 -6.95,5.54l-0.01 -8.37 -5.46 0 -0.04 14.77c-4.08,-0.84 -6.59,-5.79 -7.37,-9.64 -0.14,-0.69 -0.61,-5 -0.62,-5.02 -0.27,-0.16 -0.15,-0.1 -0.57,-0.11l-5.15 0c-0.35,1.87 0.72,7.02 1.26,8.76 1.55,4.93 4.58,8.99 9.27,11.02 2.64,1.14 5.45,1.63 8.66,1.55l0.01 -0z"/>
 </g>
</svg>
