<svg viewBox="0 0 49 49" xmlns="http://www.w3.org/2000/svg" xmlns:xlink="http://www.w3.org/1999/xlink" width="49.000000" height="49.000000" fill="none">
	<rect id="icon-dzen" width="49.000000" height="49.000000" x="0.000000" y="0.000000" />
	<g id="Слой_x0020_1">
		<path id="Вектор 9" d="M24.5 0C31.2675 0 37.3925 2.7454 41.8236 7.17643C46.2546 11.6075 49 17.7325 49 24.5C49 31.2675 46.2546 37.3925 41.8236 41.8236C37.3925 46.2546 31.2675 49 24.5 49C17.7325 49 11.6075 46.2546 7.17643 41.8236C2.7454 37.3925 0 31.2675 0 24.5C0 17.7325 2.7454 11.6075 7.17643 7.17643C11.6075 2.7454 17.7325 1.59162e-06 24.5 1.59162e-06L24.5 0ZM40.405 8.59503C36.3328 4.52282 30.7168 2.01107 24.5 2.01107C18.2915 2.01107 12.6672 4.53116 8.59503 8.59503C4.52282 12.6672 2.01107 18.2832 2.01107 24.5C2.01107 30.7084 4.53116 36.3328 8.59503 40.405C12.6672 44.4772 18.2832 46.9889 24.5 46.9889C30.7084 46.9889 36.3328 44.4688 40.405 40.405C44.4772 36.3328 46.9889 30.7168 46.9889 24.5C46.9889 18.2915 44.4688 12.6672 40.405 8.59503L40.405 8.59503Z" fill="rgb(255,255,255)" fill-rule="nonzero" />
		<path id="Вектор 10" d="M24.5 1.00977C24.9506 1.00977 25.3929 1.02645 25.8435 1.05149L25.8435 8.55336C25.8435 16.5893 32.4191 23.1649 40.455 23.1649L47.9569 23.1649C47.9819 23.6072 47.9986 24.0578 47.9986 24.5084C47.9986 24.959 47.9819 25.4013 47.9569 25.8519L40.455 25.8519C32.4191 25.8519 25.8435 32.4275 25.8435 40.4634L25.8435 47.9653C25.4012 47.9903 24.9506 48.007 24.5 48.007C24.0494 48.007 23.6071 47.9903 23.1565 47.9653L23.1565 40.4634C23.1565 32.4275 16.5809 25.8519 8.54494 25.8519L1.04307 25.8519C1.01803 25.4096 1.00134 24.959 1.00134 24.5084C1.00134 24.0578 1.01803 23.6072 1.04307 23.1649L8.54494 23.1649C16.5809 23.1649 23.1565 16.5893 23.1565 8.55336L23.1565 1.05149C23.5988 1.02646 24.0494 1.00977 24.5 1.00977L24.5 1.00977Z" fill="rgb(255,255,255)" fill-rule="evenodd" />
	</g>
</svg>
