<?xml version="1.0" encoding="UTF-8"?>
<!DOCTYPE svg PUBLIC "-//W3C//DTD SVG 1.1//EN" "http://www.w3.org/Graphics/SVG/1.1/DTD/svg11.dtd">
<!-- Creator: CorelDRAW 2018 (64-Bit) -->
<svg xmlns="http://www.w3.org/2000/svg" xml:space="preserve" width="20.0886mm" height="20.0886mm" version="1.1" style="shape-rendering:geometricPrecision; text-rendering:geometricPrecision; image-rendering:optimizeQuality; fill-rule:evenodd; clip-rule:evenodd"
viewBox="0 0 98.92 98.92"
 xmlns:xlink="http://www.w3.org/1999/xlink">
 <defs>
  <style type="text/css">
   <![CDATA[
    .str0 {stroke:white;stroke-width:3.47;stroke-miterlimit:22.9256}
    .fil0 {fill:none}
    .fil1 {fill:white}
   ]]>
  </style>
 </defs>
 <g id="Слой_x0020_1">
  <metadata id="CorelCorpID_0Corel-Layer"/>
  <g id="_2434380982912">
   <circle class="fil0 str0" cx="49.46" cy="49.46" r="47.72"/>
   <path class="fil1" d="M52.21 63.94l0.02 -9.47c3.45,-0.18 7.71,3.09 9.39,5.92 1.28,2.16 1.08,2.34 1.7,3.52l7.5 0.04c-0.48,-3.55 -4.28,-8.89 -7.09,-10.94 -0.56,-0.41 -1.09,-0.84 -1.73,-1.28 -0.6,-0.42 -1.38,-0.73 -1.97,-1.17 1.98,-1.84 2.66,-1.4 5.79,-5.46 1.16,-1.5 3.31,-5.4 3.4,-7.81l-6.78 -0.04c-0.53,0.97 -0.92,2.46 -1.52,3.55 -1.41,2.55 -5.23,7.12 -8.69,6.93l-0.01 -10.47 -6.83 0 -0.05 18.47c-5.11,-1.05 -8.24,-7.24 -9.22,-12.06 -0.17,-0.86 -0.76,-6.26 -0.77,-6.28 -0.33,-0.2 -0.18,-0.12 -0.72,-0.14l-6.44 0.01c-0.44,2.33 0.9,8.78 1.58,10.96 1.93,6.16 5.73,11.25 11.6,13.79 3.3,1.43 6.82,2.04 10.83,1.94l0.01 -0z"/>
  </g>
 </g>
</svg>
