<?xml version="1.0" encoding="UTF-8"?>
<!DOCTYPE svg PUBLIC "-//W3C//DTD SVG 1.1//EN" "http://www.w3.org/Graphics/SVG/1.1/DTD/svg11.dtd">
<!-- Creator: CorelDRAW 2018 (64-Bit) -->
<svg xmlns="http://www.w3.org/2000/svg" xml:space="preserve" width="10.2415mm" height="9.9936mm" version="1.1" style="shape-rendering:geometricPrecision; text-rendering:geometricPrecision; image-rendering:optimizeQuality; fill-rule:evenodd; clip-rule:evenodd"
viewBox="0 0 34.72 33.88"
 xmlns:xlink="http://www.w3.org/1999/xlink">
 <defs>
  <style type="text/css">
   <![CDATA[
    .str0 {stroke:white;stroke-width:0.68;stroke-miterlimit:22.9256}
    .fil0 {fill:white}
    .fil1 {fill:black;fill-rule:nonzero}
   ]]>
  </style>
 </defs>
 <g id="Слой_x0020_1">
  <metadata id="CorelCorpID_0Corel-Layer"/>
  <path class="fil0" d="M4.18 0l15.94 0c2.3,0 4.18,1.88 4.18,4.18l0 15.94c0,2.3 -1.88,4.18 -4.18,4.18l-15.94 0c-2.3,0 -4.18,-1.88 -4.18,-4.18l0 -15.94c0,-2.3 1.88,-4.18 4.18,-4.18z"/>
  <rect class="fil0 str0" x="8.95" y="8.1" width="24.3" height="24.3" rx="4.18" ry="4.18"/>
  <path class="fil1" d="M13.12 6.63l15.94 0c1.56,0 2.97,0.64 3.99,1.66 1.02,1.02 1.66,2.44 1.66,3.99l0 15.94c0,1.55 -0.64,2.96 -1.66,3.99l0 0.01c-1.02,1.02 -2.44,1.66 -3.99,1.66l-15.94 0c-1.55,0 -2.96,-0.64 -3.99,-1.66l-0.01 -0.01c-1.02,-1.02 -1.66,-2.44 -1.66,-3.99l0 -15.94c0,-1.56 0.64,-2.97 1.66,-3.99l0.01 0c1.02,-1.02 2.44,-1.66 3.99,-1.66zm15.94 2.95l-15.94 0c-0.74,0 -1.42,0.3 -1.91,0.79 -0.49,0.49 -0.79,1.17 -0.79,1.91l0 15.94c0,0.74 0.3,1.42 0.79,1.91 0.49,0.49 1.17,0.79 1.91,0.79l15.94 0c0.74,0 1.42,-0.3 1.9,-0.79 0.49,-0.49 0.79,-1.16 0.79,-1.9l0 -15.94c0,-0.74 -0.3,-1.42 -0.79,-1.91 -0.49,-0.49 -1.16,-0.79 -1.9,-0.79z"/>
 </g>
</svg>
