<?xml version="1.0" encoding="UTF-8"?>
<!DOCTYPE svg PUBLIC "-//W3C//DTD SVG 1.1//EN" "http://www.w3.org/Graphics/SVG/1.1/DTD/svg11.dtd">
<!-- Creator: CorelDRAW 2018 (64-Bit) -->
<svg xmlns="http://www.w3.org/2000/svg" xml:space="preserve" width="10.2443mm" height="9.9936mm" version="1.1" style="shape-rendering:geometricPrecision; text-rendering:geometricPrecision; image-rendering:optimizeQuality; fill-rule:evenodd; clip-rule:evenodd"
viewBox="0 0 38.54 37.59"
 xmlns:xlink="http://www.w3.org/1999/xlink">
 <defs>
  <style type="text/css">
   <![CDATA[
    .str0 {stroke:white;stroke-width:0.75;stroke-miterlimit:22.9256}
    .str1 {stroke:black;stroke-width:6.64;stroke-linecap:round;stroke-linejoin:round;stroke-miterlimit:22.9256}
    .fil2 {fill:none;fill-rule:nonzero}
    .fil0 {fill:white}
    .fil1 {fill:black;fill-rule:nonzero}
    .fil3 {fill:white;fill-rule:nonzero}
   ]]>
  </style>
 </defs>
 <g id="Слой_x0020_1">
  <metadata id="CorelCorpID_0Corel-Layer"/>
  <path class="fil0" d="M4.63 0l17.69 0c2.55,0 4.63,2.09 4.63,4.63l0 17.69c0,2.55 -2.09,4.63 -4.63,4.63l-17.69 0c-2.55,0 -4.63,-2.09 -4.63,-4.63l0 -17.69c0,-2.55 2.09,-4.63 4.63,-4.63z"/>
  <rect class="fil0 str0" x="9.93" y="8.99" width="26.96" height="26.96" rx="4.63" ry="4.63"/>
  <path class="fil1" d="M14.56 7.35l17.69 0c1.73,0 3.3,0.71 4.43,1.84 1.14,1.14 1.84,2.71 1.84,4.43l0 17.69c0,1.72 -0.71,3.29 -1.84,4.43l0 0.01c-1.14,1.14 -2.71,1.84 -4.43,1.84l-17.69 0c-1.72,0 -3.29,-0.71 -4.43,-1.84l-0.01 -0.01c-1.14,-1.14 -1.84,-2.7 -1.84,-4.43l0 -17.69c0,-1.73 0.71,-3.3 1.84,-4.43l0.01 0c1.14,-1.14 2.7,-1.84 4.43,-1.84zm17.69 3.28l-17.69 0c-0.82,0 -1.57,0.34 -2.12,0.88 -0.54,0.55 -0.88,1.3 -0.88,2.12l0 17.69c0,0.82 0.34,1.57 0.88,2.12 0.54,0.54 1.29,0.88 2.12,0.88l17.69 0c0.82,0 1.57,-0.34 2.11,-0.88 0.54,-0.54 0.88,-1.29 0.88,-2.11l0 -17.69c0,-0.82 -0.34,-1.57 -0.88,-2.11 -0.54,-0.54 -1.29,-0.88 -2.11,-0.88z"/>
  <g>
   <polygon class="fil2 str1" points="7.32,14.26 15.21,22.15 32.41,4.96 35.22,7.77 15.21,27.78 4.5,17.07 "/>
   <polygon id="1" class="fil3" points="7.32,14.26 15.21,22.15 32.41,4.96 35.22,7.77 15.21,27.78 4.5,17.07 "/>
  </g>
 </g>
</svg>
