<?xml version="1.0" encoding="UTF-8"?>
<!DOCTYPE svg PUBLIC "-//W3C//DTD SVG 1.1//EN" "http://www.w3.org/Graphics/SVG/1.1/DTD/svg11.dtd">
<!-- Creator: CorelDRAW 2018 (64-Bit) -->
<svg xmlns="http://www.w3.org/2000/svg" xml:space="preserve" width="18.2943mm" height="18.2943mm" version="1.1" style="shape-rendering:geometricPrecision; text-rendering:geometricPrecision; image-rendering:optimizeQuality; fill-rule:evenodd; clip-rule:evenodd"
viewBox="0 0 59.76 59.76"
 xmlns:xlink="http://www.w3.org/1999/xlink">
 <defs>
  <style type="text/css">
   <![CDATA[
    .str0 {stroke:white;stroke-width:2.3;stroke-miterlimit:22.9256}
    .fil0 {fill:none}
    .fil1 {fill:#FEFEFF}
   ]]>
  </style>
 </defs>
 <g id="Слой_x0020_1">
  <metadata id="CorelCorpID_0Corel-Layer"/>
  <g id="_2434379998768">
   <circle class="fil0 str0" cx="29.88" cy="29.88" r="28.73"/>
   <path class="fil1" d="M36.5 23.77c-0.09,0.47 -0.45,0.64 -0.83,0.94l-8.53 7.74c-0.42,0.48 -1.4,1.2 -1.95,1.71 -0.5,0.46 -0.35,0.73 -0.4,1.41 -0.04,0.58 -0.08,1.15 -0.12,1.73 -0.06,0.81 -0.31,2.77 -0.2,3.43 0.93,0.04 1.56,-0.96 2.17,-1.54 0.65,-0.61 1.38,-1.2 1.98,-1.85 0.93,0.46 4.76,3.52 5.98,4.36 0.8,0.55 1.79,0.78 2.28,-0.31 0.34,-0.75 2.15,-9.85 2.49,-11.45 0.41,-1.9 0.81,-3.8 1.21,-5.7 0.26,-1.24 1.61,-5.2 -1.01,-4.57l-5 1.91c-1.69,0.64 -3.37,1.33 -5.07,1.96 -1.24,0.46 -14.39,5.38 -14.94,5.92 -1.28,1.25 2.47,1.96 3.99,2.45 3.52,1.12 2.35,1.12 4.85,-0.42l10.68 -6.71c0.71,-0.45 1.56,-1.26 2.41,-0.99z"/>
  </g>
 </g>
</svg>
