<?xml version="1.0" encoding="UTF-8"?>
<!DOCTYPE svg PUBLIC "-//W3C//DTD SVG 1.1//EN" "http://www.w3.org/Graphics/SVG/1.1/DTD/svg11.dtd">
<!-- Creator: CorelDRAW 2018 (64-Bit) -->
<svg xmlns="http://www.w3.org/2000/svg" xml:space="preserve" width="18.2943mm" height="18.2943mm" version="1.1" style="shape-rendering:geometricPrecision; text-rendering:geometricPrecision; image-rendering:optimizeQuality; fill-rule:evenodd; clip-rule:evenodd"
viewBox="0 0 72.26 72.26"
 xmlns:xlink="http://www.w3.org/1999/xlink">
 <defs>
  <style type="text/css">
   <![CDATA[
    .str0 {stroke:white;stroke-width:2.79;stroke-miterlimit:22.9256}
    .fil0 {fill:none}
    .fil1 {fill:white}
   ]]>
  </style>
 </defs>
 <g id="Слой_x0020_1">
  <metadata id="CorelCorpID_0Corel-Layer"/>
  <g id="_2434417431488">
   <circle class="fil0 str0" cx="36.13" cy="36.13" r="34.74"/>
   <path class="fil1" d="M38.13 46.66l0.01 -6.89c2.51,-0.13 5.62,2.25 6.83,4.31 0.93,1.58 0.78,1.7 1.24,2.56l5.46 0.03c-0.35,-2.58 -3.11,-6.47 -5.16,-7.96 -0.41,-0.3 -0.79,-0.61 -1.26,-0.93 -0.44,-0.3 -1.01,-0.53 -1.43,-0.85 1.44,-1.34 1.94,-1.02 4.21,-3.98 0.84,-1.09 2.41,-3.93 2.48,-5.69l-4.93 -0.03c-0.38,0.71 -0.67,1.79 -1.11,2.59 -1.03,1.86 -3.81,5.19 -6.33,5.04l-0.01 -7.62 -4.97 0 -0.03 13.44c-3.72,-0.76 -6,-5.27 -6.71,-8.78 -0.13,-0.63 -0.55,-4.55 -0.56,-4.57 -0.24,-0.14 -0.13,-0.09 -0.52,-0.1l-4.69 0c-0.32,1.7 0.65,6.39 1.15,7.98 1.41,4.49 4.17,8.19 8.44,10.04 2.4,1.04 4.97,1.49 7.88,1.42l0.01 -0z"/>
  </g>
 </g>
</svg>
