<?xml version="1.0" encoding="UTF-8"?>
<!DOCTYPE svg PUBLIC "-//W3C//DTD SVG 1.1//EN" "http://www.w3.org/Graphics/SVG/1.1/DTD/svg11.dtd">
<!-- Creator: CorelDRAW 2018 (64-Bit) -->
<svg xmlns="http://www.w3.org/2000/svg" xml:space="preserve" width="18.2943mm" height="18.2943mm" version="1.1" style="shape-rendering:geometricPrecision; text-rendering:geometricPrecision; image-rendering:optimizeQuality; fill-rule:evenodd; clip-rule:evenodd"
viewBox="0 0 65.42 65.42"
 xmlns:xlink="http://www.w3.org/1999/xlink">
 <defs>
  <style type="text/css">
   <![CDATA[
    .str0 {stroke:white;stroke-width:2.52;stroke-miterlimit:22.9256}
    .fil0 {fill:none}
    .fil1 {fill:white}
   ]]>
  </style>
 </defs>
 <g id="Слой_x0020_1">
  <metadata id="CorelCorpID_0Corel-Layer"/>
  <g id="_2433885634896">
   <circle class="fil0 str0" cx="32.71" cy="32.71" r="31.45"/>
   <g>
    <path class="fil1" d="M35.18 40.82c0.41,-0.5 1.45,-0.86 1.62,0.4 0.08,0.6 0.1,5 -0.03,5.48 -0.36,1.31 -1.53,0.45 -1.59,0.16l0.01 -6.05 0 0zm-1.9 -5.11l0 12.9c0,0.51 0.17,0.36 0.7,0.36 1.34,-0 1.21,0.23 1.2,-0.91 0.34,0.2 0.37,0.49 1.11,0.85 0.44,0.21 1.14,0.24 1.57,-0.05 0.81,-0.55 0.84,-1.88 0.84,-3.14l0 -3.56c0,-1.15 -0.03,-2.72 -0.76,-3.22 -0.75,-0.52 -1.85,-0.19 -2.45,0.49 -0.05,0.06 -0.08,0.11 -0.12,0.15 -0.17,0.15 -0.01,0.04 -0.2,0.12l0.01 -4.35c-0.39,-0.04 -0.77,-0.02 -1.13,-0.02 -0.57,0 -0.76,-0.16 -0.76,0.37l-0 0z"/>
    <path class="fil1" d="M29.89 47.92l-0 1.02 1.85 0.02 0.01 -10.12 -1.83 -0.03c-0.1,0.5 -0.01,6.35 -0.03,7.45 -0.01,0.42 -0.21,0.64 -0.44,0.83 -1.46,1.18 -1.12,-1.46 -1.12,-1.7 0,-0.93 0.07,-6.38 -0.04,-6.51 -0.07,-0.08 -0.28,-0.07 -0.4,-0.07l-1.37 0.03c-0.1,0.54 -0.03,6.29 -0.03,7.35 0,1.11 -0.08,2.52 0.85,2.82 1.27,0.42 2.23,-0.95 2.57,-1.1l-0 0z"/>
    <path class="fil1" d="M41.93 42.67c-0.06,-0.94 -0.13,-2.29 0.9,-2.29 1.06,0 0.97,1.57 0.87,2.31l-1.77 -0.03zm3.65 2.78l-1.87 0c-0.02,0.46 0.03,1.19 -0.15,1.54 -0.2,0.38 -0.77,0.54 -1.19,0.28 -0.59,-0.36 -0.46,-2.19 -0.43,-3.05l3.61 -0.01c0.13,-0.58 0.04,-3.02 -0.13,-3.57 -0.17,-0.56 -0.4,-0.89 -0.67,-1.22 -0.19,-0.24 -0.88,-0.6 -1.27,-0.68 -1.79,-0.35 -3.05,0.64 -3.31,2.33 -0.09,0.58 -0.07,1.26 -0.07,1.88 0,2.53 -0.4,5.14 1.66,5.91 0.92,0.34 2.22,0.27 2.97,-0.44 0.84,-0.8 0.86,-1.86 0.85,-2.99l-0 0z"/>
    <path class="fil1" d="M25.04 29.97l2 0.01c0,-1.01 -0.11,-5.15 0.13,-5.94l1.41 -4.63c0.14,-0.48 0.89,-2.8 0.89,-3.08l-1.96 -0.01c-0.13,0.36 -0.25,0.9 -0.34,1.27l-0.86 3.31c-0.03,0.11 -0.06,0.22 -0.09,0.32 -0.11,0.41 0.01,0.14 -0.15,0.33l-0.12 -0.3c-0.04,-0.13 -0.05,-0.49 -0.09,-0.32l-0.55 -2c-0.21,-0.73 -0.44,-1.95 -0.74,-2.61l-2.05 -0.01 1 2.99c0.53,1.76 0.96,2.85 1.4,4.66 0.21,0.87 0.11,4.91 0.12,6.01l-0 0z"/>
    <path class="fil1" d="M39.99 28.96c0.06,0.42 0.01,0.6 0.03,0.78 0.02,0.15 -0.01,-0.02 0.02,0.12l0.04 0.09c0.28,0.08 1.43,0.09 1.68,-0.01 0.12,-0.18 0.08,-0.27 0.08,-0.54 -0.01,-1.5 0.07,-9.09 -0.04,-9.58l-1.76 -0.01 -0.02 7.78c-0.12,0.35 -1.39,1.4 -1.61,0.6 -0.2,-0.73 0.07,-7.24 -0.09,-8.37l-1.76 -0c-0.08,0.9 -0.01,6.08 -0.01,7.44 0,1.14 -0.12,2.49 0.87,2.79 0.56,0.17 1.15,-0.04 1.53,-0.29 0.44,-0.29 0.83,-0.7 1.03,-0.79l0 0z"/>
    <path class="fil1" d="M31.39 23.02c0,-2.43 1.4,-1.75 1.64,-1.2 0.25,0.58 0.15,4.15 0.15,4.97 0,0.79 -0.1,1.73 -0.95,1.67 -0.76,-0.05 -0.84,-0.88 -0.84,-1.67l0 -3.76 0 -0zm0.14 -3.21c-0.52,0.17 -0.73,0.16 -1.22,0.76 -1.02,1.22 -0.74,3.36 -0.74,5.21 0,1.56 -0.06,3.52 1.73,4.15 0.51,0.18 1.18,0.26 1.78,0.07 2.32,-0.74 1.91,-3.34 1.91,-5.97 0,-1.24 0.02,-2.43 -0.59,-3.32 -0.44,-0.64 -1.64,-1.3 -2.87,-0.9l0 -0z"/>
    <path class="fil1" d="M19.86 37.3l2.11 0.01 0 11.65c0.34,0.02 0.68,0.01 1.01,0.01l0.81 0c0.22,-0.03 0.12,-0.02 0.21,-0.08l0.03 -11.58 2.18 -0.01 0.01 -1.92 -6.35 -0.03c-0.09,0.31 -0.08,1.62 -0.01,1.95l-0 0z"/>
   </g>
  </g>
 </g>
</svg>
