<?xml version="1.0" encoding="UTF-8"?>
<!DOCTYPE svg PUBLIC "-//W3C//DTD SVG 1.1//EN" "http://www.w3.org/Graphics/SVG/1.1/DTD/svg11.dtd">
<!-- Creator: CorelDRAW 2018 (64-Bit) -->
<svg xmlns="http://www.w3.org/2000/svg" xml:space="preserve" width="13.2154mm" height="11.4553mm" version="1.1" style="shape-rendering:geometricPrecision; text-rendering:geometricPrecision; image-rendering:optimizeQuality; fill-rule:evenodd; clip-rule:evenodd"
viewBox="0 0 114.28 99.06"
 xmlns:xlink="http://www.w3.org/1999/xlink">
 <defs>
  <style type="text/css">
   <![CDATA[
    .fil0 {fill:white}
   ]]>
  </style>
 </defs>
 <g id="Слой_x0020_1">
  <metadata id="CorelCorpID_0Corel-Layer"/>
  <g id="_2223585703168">
   <path class="fil0" d="M31.21 26.25l-0.01 48.42 16.31 12.44c3.55,2.61 13.48,11.34 17.2,11.88 3.98,0.58 7.61,-2.46 8.02,-6.43 0.42,-4.12 0.05,-63.98 0.05,-72.87 0,-3.04 0.36,-12.02 -0.33,-14.37 -1.19,-4.02 -4.78,-6.17 -8.96,-5 -2.24,0.62 -31.26,24.45 -32.26,25.94z"/>
   <path class="fil0" d="M22.87 74.81l0.09 -48.7c-2.86,-0.42 -8.43,-0.15 -11.49,-0.12 -14.04,0.12 -11.23,14.56 -11.23,24.31 0,9.69 -2.79,24.58 10.85,24.62 3.4,0.01 8.59,0.29 11.78,-0.1z"/>
   <path class="fil0" d="M92.88 18.54c0.38,1.38 3.56,4.6 4.71,6.11 10.07,13.3 10.31,35.59 0.13,49.61 -1.22,1.69 -4.43,4.76 -4.84,6.32l5.88 5.97c3.01,-1.64 9.24,-11.7 10.82,-15.34 6.34,-14.59 6.14,-28.44 0.13,-43.04 -1.47,-3.57 -8,-14.33 -10.83,-15.57 -1.37,0.73 -5.06,4.59 -6.01,5.96z"/>
   <path class="fil0" d="M80.85 30.56c0.32,1.33 4.04,5.71 5.15,8.21 1.52,3.41 2.32,7.02 2.34,10.79 0.06,11.6 -6.23,16.14 -7.57,18.94l6.06 6.09c6.42,-5.08 10.52,-16.4 10.57,-24.66 0.06,-9.98 -3.7,-18.53 -10.18,-25.4 -1.19,0.54 -5.49,4.87 -6.36,6.04z"/>
  </g>
 </g>
</svg>
