<?xml version="1.0" encoding="UTF-8"?>
<!DOCTYPE svg PUBLIC "-//W3C//DTD SVG 1.1//EN" "http://www.w3.org/Graphics/SVG/1.1/DTD/svg11.dtd">
<!-- Creator: CorelDRAW 2018 (64-Bit) -->
<svg xmlns="http://www.w3.org/2000/svg" xml:space="preserve" width="8.6238mm" height="8.4846mm" version="1.1" style="shape-rendering:geometricPrecision; text-rendering:geometricPrecision; image-rendering:optimizeQuality; fill-rule:evenodd; clip-rule:evenodd"
viewBox="0 0 14.7 14.46"
 xmlns:xlink="http://www.w3.org/1999/xlink">
 <defs>
  <style type="text/css">
   <![CDATA[
    .fil0 {fill:black;fill-rule:nonzero}
   ]]>
  </style>
 </defs>
 <g id="Слой_x0020_1">
  <metadata id="CorelCorpID_0Corel-Layer"/>
  <path class="fil0" d="M2.3 0l6.49 0c0.63,0 1.21,0.26 1.63,0.68 0.42,0.42 0.68,0.99 0.68,1.63l0 0.21c-0.15,-0.04 -0.3,-0.06 -0.46,-0.06l-0.74 0 0 -0.14c0,-0.3 -0.12,-0.58 -0.32,-0.78 -0.2,-0.2 -0.47,-0.32 -0.78,-0.32l-6.49 0c-0.3,0 -0.58,0.12 -0.78,0.32 -0.2,0.2 -0.32,0.48 -0.32,0.78l0 6.49c0,0.3 0.12,0.58 0.32,0.78 0.2,0.2 0.47,0.32 0.78,0.32l0.14 0 0 0.74c0,0.16 0.02,0.31 0.06,0.46l-0.2 0c-0.63,0 -1.21,-0.26 -1.62,-0.68l-0 -0c-0.42,-0.42 -0.68,-0.99 -0.68,-1.62l0 -6.49c0,-0.63 0.26,-1.21 0.68,-1.63l0 0c0.42,-0.42 0.99,-0.68 1.62,-0.68z"/>
  <path class="fil0" d="M5.91 3.37l6.49 0c0.63,0 1.21,0.26 1.63,0.68 0.42,0.42 0.68,0.99 0.68,1.63l0 6.49c0,0.63 -0.26,1.21 -0.68,1.62l0 0c-0.42,0.42 -0.99,0.68 -1.63,0.68l-6.49 0c-0.63,0 -1.21,-0.26 -1.62,-0.68l-0 -0c-0.42,-0.42 -0.68,-0.99 -0.68,-1.62l0 -6.49c0,-0.63 0.26,-1.21 0.68,-1.63l0 0c0.42,-0.42 0.99,-0.68 1.62,-0.68zm6.49 1.2l-6.49 0c-0.3,0 -0.58,0.12 -0.78,0.32 -0.2,0.2 -0.32,0.48 -0.32,0.78l0 6.49c0,0.3 0.12,0.58 0.32,0.78 0.2,0.2 0.47,0.32 0.78,0.32l6.49 0c0.3,0 0.58,-0.12 0.78,-0.32 0.2,-0.2 0.32,-0.47 0.32,-0.78l0 -6.49c0,-0.3 -0.12,-0.58 -0.32,-0.78 -0.2,-0.2 -0.47,-0.32 -0.78,-0.32z"/>
 </g>
</svg>
