<?xml version="1.0" encoding="UTF-8"?>
<!DOCTYPE svg PUBLIC "-//W3C//DTD SVG 1.1//EN" "http://www.w3.org/Graphics/SVG/1.1/DTD/svg11.dtd">
<!-- Creator: CorelDRAW 2018 (64-Bit) -->
<svg xmlns="http://www.w3.org/2000/svg" xml:space="preserve" width="10.6535mm" height="10.4815mm" version="1.1" style="shape-rendering:geometricPrecision; text-rendering:geometricPrecision; image-rendering:optimizeQuality; fill-rule:evenodd; clip-rule:evenodd"
viewBox="0 0 49.6 48.8"
 xmlns:xlink="http://www.w3.org/1999/xlink">
 <defs>
  <style type="text/css">
   <![CDATA[
    .str0 {stroke:white;stroke-width:0.93;stroke-miterlimit:22.9256}
    .fil0 {fill:white}
    .fil1 {fill:black;fill-rule:nonzero}
   ]]>
  </style>
 </defs>
 <g id="Слой_x0020_1">
  <metadata id="CorelCorpID_0Corel-Layer"/>
  <path class="fil0" d="M7.65 2.27l21.9 0c3.15,0 5.74,2.58 5.74,5.74l0 21.9c0,3.15 -2.58,5.74 -5.74,5.74l-21.9 0c-3.15,0 -5.74,-2.58 -5.74,-5.74l0 -21.9c0,-3.15 2.58,-5.74 5.74,-5.74z"/>
  <path class="fil1" d="M7.76 0l21.9 0c2.14,0 4.08,0.87 5.48,2.28 1.41,1.41 2.28,3.35 2.28,5.49l0 0.7c-0.5,-0.14 -1.02,-0.22 -1.56,-0.22l-2.49 0 0 -0.48c0,-1.02 -0.42,-1.94 -1.09,-2.62 -0.67,-0.67 -1.6,-1.09 -2.62,-1.09l-21.9 0c-1.02,0 -1.95,0.42 -2.62,1.09 -0.67,0.68 -1.09,1.6 -1.09,2.62l0 21.9c0,1.02 0.42,1.95 1.09,2.62 0.67,0.67 1.6,1.09 2.62,1.09l0.47 0 0 2.51c0,0.54 0.08,1.06 0.21,1.55l-0.68 0c-2.13,0 -4.07,-0.87 -5.48,-2.28l-0.01 -0.01c-1.41,-1.41 -2.28,-3.35 -2.28,-5.48l0 -21.9c0,-2.14 0.87,-4.08 2.28,-5.49l0.01 0c1.41,-1.41 3.35,-2.28 5.48,-2.28z"/>
  <rect class="fil0 str0" x="14.2" y="13.4" width="33.37" height="33.37" rx="5.74" ry="5.74"/>
  <path class="fil1" d="M19.94 11.37l21.9 0c2.14,0 4.08,0.87 5.48,2.28 1.41,1.41 2.28,3.35 2.28,5.48l0 21.9c0,2.13 -0.87,4.07 -2.28,5.48l0 0.01c-1.41,1.41 -3.35,2.28 -5.48,2.28l-21.9 0c-2.13,0 -4.07,-0.87 -5.48,-2.28l-0.01 -0.01c-1.41,-1.41 -2.28,-3.35 -2.28,-5.48l0 -21.9c0,-2.14 0.87,-4.08 2.28,-5.48l0.01 0c1.41,-1.41 3.35,-2.28 5.48,-2.28zm21.9 4.06l-21.9 0c-1.02,0 -1.95,0.42 -2.62,1.09 -0.67,0.68 -1.09,1.6 -1.09,2.62l0 21.9c0,1.02 0.42,1.95 1.09,2.62 0.67,0.67 1.6,1.09 2.62,1.09l21.9 0c1.02,0 1.94,-0.42 2.62,-1.09 0.67,-0.67 1.09,-1.6 1.09,-2.62l0 -21.9c0,-1.02 -0.42,-1.94 -1.09,-2.62 -0.67,-0.67 -1.6,-1.09 -2.62,-1.09z"/>
 </g>
</svg>
