<?xml version="1.0" encoding="UTF-8"?>
<!DOCTYPE svg PUBLIC "-//W3C//DTD SVG 1.1//EN" "http://www.w3.org/Graphics/SVG/1.1/DTD/svg11.dtd">
<!-- Creator: CorelDRAW 2018 (64-Bit) -->
<svg xmlns="http://www.w3.org/2000/svg" xml:space="preserve" width="9.574mm" height="8.0401mm" version="1.1" style="shape-rendering:geometricPrecision; text-rendering:geometricPrecision; image-rendering:optimizeQuality; fill-rule:evenodd; clip-rule:evenodd"
viewBox="0 0 16.05 13.48"
 xmlns:xlink="http://www.w3.org/1999/xlink">
 <defs>
  <style type="text/css">
   <![CDATA[
    .fil0 {fill:white}
   ]]>
  </style>
 </defs>
 <g id="Слой_x0020_1">
  <metadata id="CorelCorpID_0Corel-Layer"/>
  <g id="_2434795066048">
   <path class="fil0" d="M3.4 13.45c0.27,0.07 0.6,-0.02 0.89,-0.11l9.65 -2.87c0.45,-0.13 1.39,-0.35 1.63,-0.64l-6 -3.25 -0.34 0.53c-0.35,0.63 -1.14,0.93 -1.8,0.67 -0.14,-0.06 -0.25,-0.1 -0.39,-0.17l-0.37 -0.16 -3.25 6z"/>
   <path class="fil0" d="M9.83 4.35l0.82 -1.3c0.21,-0.37 0.61,-0.93 0.81,-1.29l1.02 -1.62c0.05,-0.09 0.05,-0.06 0.06,-0.13 -0.13,0.01 -0.22,0 -0.37,0.03 -0.28,0.05 -8.52,2.52 -9.58,2.84 -0.45,0.13 -1.68,0.45 -1.98,0.68 0.08,0.06 0.33,0.15 0.46,0.23l0.46 0.22c0.29,0.12 0.65,0.32 0.93,0.44 0.31,0.13 0.62,0.31 0.93,0.44 0.08,0.04 0.14,0.07 0.23,0.11 0.31,0.13 0.88,0.44 1.16,0.55l1.85 0.88c0.08,0.04 0.15,0.05 0.23,0.1l0.47 0.2c0.27,0.13 0.72,0.41 0.99,0.03 0.27,-0.4 0.57,-0.9 0.83,-1.28 0.18,-0.25 0.5,-0.84 0.68,-1.09l0 -0z"/>
   <path class="fil0" d="M5.78 7.04l-1.79 -0.84c-0.4,-0.16 -1.03,-0.51 -1.42,-0.68l-2.5 -1.17c-0.14,0.25 -0.01,0.74 0.08,1.05l1.85 6.21c0.11,0.39 0.28,1.13 0.56,1.38l3.22 -5.95 0 -0z"/>
   <path class="fil0" d="M10.08 5.75c0.11,0.07 0.25,0.14 0.38,0.21l5.57 3.02c0.13,-0.37 -0.34,-1.66 -0.48,-2.13l-1.65 -5.56c-0.14,-0.46 -0.17,-0.56 -0.45,-0.88l-0.95 1.49c-0.04,0.06 -0.06,0.11 -0.09,0.17 -0.04,0.06 -0.07,0.11 -0.11,0.16l-1.47 2.34c-0.25,0.35 -0.5,0.83 -0.73,1.17z"/>
  </g>
 </g>
</svg>
