<?xml version="1.0" encoding="UTF-8"?>
<!DOCTYPE svg PUBLIC "-//W3C//DTD SVG 1.1//EN" "http://www.w3.org/Graphics/SVG/1.1/DTD/svg11.dtd">
<!-- Creator: CorelDRAW 2018 (64-Bit) -->
<svg xmlns="http://www.w3.org/2000/svg" xml:space="preserve" width="106.765mm" height="12.6196mm" version="1.1" style="shape-rendering:geometricPrecision; text-rendering:geometricPrecision; image-rendering:optimizeQuality; fill-rule:evenodd; clip-rule:evenodd"
viewBox="0 0 1925.17 227.55"
 xmlns:xlink="http://www.w3.org/1999/xlink">
 <defs>
  <style type="text/css">
   <![CDATA[
    .fil0 {fill:white;fill-rule:nonzero}
   ]]>
  </style>
 </defs>
 <g id="Слой_x0020_1">
  <metadata id="CorelCorpID_0Corel-Layer"/>
  <g id="_2223076725328">
   <g>
    <path class="fil0" d="M199.57 127.1c7.49,0 13.56,6.06 13.56,13.54 0,7.48 -6.07,13.54 -13.56,13.54l0 -27.08zm-180.44 0l180.44 0 0 27.08 -180.44 0 0 -27.08zm0 27.08c-7.49,0 -13.56,-6.06 -13.56,-13.54 0,-7.48 6.07,-13.54 13.56,-13.54l0 27.08z"/>
   </g>
   <g>
    <path class="fil0" d="M443.79 153.36l27.04 1.09c-0.3,7.46 -6.6,13.27 -14.06,12.97 -7.47,-0.3 -13.27,-6.6 -12.97,-14.06zm-1.55 -68.35l-0 0 1.77 1.72 1.72 1.77 1.67 1.81 1.62 1.84 1.56 1.88 1.51 1.91 1.46 1.95 1.4 1.98 1.35 2.01 1.29 2.05 1.23 2.07 1.18 2.1 1.12 2.14 1.06 2.16 1 2.18 0.95 2.21 0.88 2.23 0.83 2.25 0.77 2.28 0.7 2.29 0.64 2.31 0.58 2.33 0.52 2.35 0.46 2.36 0.39 2.37 0.33 2.38 0.26 2.4 0.2 2.41 0.14 2.42 0.07 2.43 0 2.43 -0.06 2.44 -27.04 -1.09 0.05 -1.7 -0 -1.69 -0.05 -1.69 -0.09 -1.68 -0.14 -1.68 -0.18 -1.67 -0.23 -1.66 -0.27 -1.65 -0.32 -1.64 -0.36 -1.63 -0.41 -1.62 -0.45 -1.62 -0.49 -1.61 -0.53 -1.59 -0.58 -1.58 -0.62 -1.56 -0.66 -1.54 -0.71 -1.54 -0.75 -1.52 -0.78 -1.49 -0.83 -1.49 -0.87 -1.47 -0.91 -1.44 -0.95 -1.42 -0.99 -1.4 -1.03 -1.38 -1.07 -1.36 -1.11 -1.33 -1.15 -1.31 -1.18 -1.28 -1.23 -1.26 -1.27 -1.24 -0 0 18.64 -19.62zm-64.49 -26.86l2.26 0.11 2.26 0.16 2.25 0.21 2.24 0.26 2.23 0.31 2.22 0.36 2.21 0.41 2.19 0.46 2.17 0.5 2.16 0.55 2.16 0.6 2.13 0.65 2.11 0.69 2.11 0.74 2.08 0.78 2.06 0.83 2.03 0.87 2.02 0.92 2 0.97 1.98 1.01 1.95 1.05 1.92 1.1 1.9 1.14 1.88 1.19 1.85 1.23 1.82 1.27 1.8 1.31 1.77 1.36 1.73 1.4 1.7 1.44 1.67 1.48 1.64 1.52 -18.64 19.62 -1.17 -1.09 -1.2 -1.06 -1.22 -1.03 -1.25 -1 -1.27 -0.97 -1.29 -0.94 -1.31 -0.92 -1.34 -0.89 -1.35 -0.85 -1.38 -0.83 -1.4 -0.8 -1.41 -0.76 -1.43 -0.73 -1.45 -0.7 -1.47 -0.67 -1.49 -0.64 -1.5 -0.61 -1.51 -0.57 -1.52 -0.54 -1.55 -0.5 -1.56 -0.47 -1.56 -0.43 -1.59 -0.4 -1.6 -0.37 -1.6 -0.33 -1.61 -0.3 -1.62 -0.26 -1.63 -0.23 -1.64 -0.19 -1.65 -0.16 -1.65 -0.12 -1.66 -0.08 1.03 -27.03zm0 0l-1.03 27.03c-7.47,-0.28 -13.29,-6.57 -13.01,-14.03 0.28,-7.46 6.57,-13.29 14.03,-13z"/>
   </g>
   <g>
    <path class="fil0" d="M377.25 58.04c7.47,0 13.52,6.11 13.52,13.64 0,7.53 -6.06,13.64 -13.52,13.64l0 -27.27zm-80.27 0l80.27 0 0 27.27 -80.27 0 0 -27.27zm0 27.27c-7.47,0 -13.52,-6.11 -13.52,-13.64 0,-7.53 6.06,-13.64 13.52,-13.64l0 27.27z"/>
   </g>
   <g>
    <path class="fil0" d="M-0 71.67c0,-7.47 6.05,-13.52 13.51,-13.52 7.46,0 13.51,6.06 13.51,13.52l-27.02 0zm0 140.4l0 -140.4 27.02 0 0 140.4 -27.02 0zm27.02 0c0,7.47 -6.05,13.52 -13.51,13.52 -7.46,0 -13.51,-6.06 -13.51,-13.52l27.02 0z"/>
   </g>
   <g>
    <path class="fil0" d="M189.89 71.67c0,-7.47 6.05,-13.52 13.51,-13.52 7.46,0 13.51,6.06 13.51,13.52l-27.02 0zm0 140.4l0 -140.4 27.02 0 0 140.4 -27.02 0zm27.02 0c0,7.47 -6.05,13.52 -13.51,13.52 -7.46,0 -13.51,-6.06 -13.51,-13.52l27.02 0z"/>
   </g>
   <g>
    <path class="fil0" d="M759.74 141.87l-27.09 0 0 0 -0.1 -2.72 -0.3 -2.69 -0.49 -2.65 -0.68 -2.63 -0.88 -2.61 -1.07 -2.59 -1.26 -2.57 -1.46 -2.54 -1.65 -2.52 -1.85 -2.49 -2.04 -2.45 -2.23 -2.4 -2.43 -2.35 -2.61 -2.29 -2.79 -2.22 -2.97 -2.15 -3.13 -2.06 -3.31 -1.97 -3.46 -1.88 -3.61 -1.77 -3.76 -1.66 -3.9 -1.55 -4.03 -1.42 -4.15 -1.29 -4.27 -1.16 -4.39 -1.02 -4.49 -0.88 -4.59 -0.73 -4.68 -0.58 -4.76 -0.42 -4.84 -0.26 -4.91 -0.08 0 -27.07 5.86 0.1 5.78 0.3 5.71 0.5 5.62 0.69 5.53 0.88 5.44 1.07 5.33 1.24 5.23 1.42 5.11 1.59 4.99 1.77 4.86 1.93 4.73 2.09 4.59 2.25 4.44 2.41 4.29 2.56 4.13 2.72 3.96 2.87 3.79 3.01 3.6 3.16 3.41 3.31 3.21 3.45 3 3.59 2.77 3.73 2.54 3.87 2.29 4.01 2.03 4.14 1.75 4.26 1.46 4.37 1.16 4.48 0.84 4.57 0.51 4.64 0.17 4.7 0 0zm-118.16 85.66l0 -27.07 0 0 4.91 -0.08 4.84 -0.26 4.76 -0.42 4.68 -0.58 4.59 -0.73 4.49 -0.88 4.39 -1.02 4.27 -1.16 4.16 -1.3 4.03 -1.42 3.9 -1.55 3.76 -1.66 3.61 -1.77 3.46 -1.88 3.3 -1.97 3.14 -2.06 2.97 -2.15 2.79 -2.22 2.61 -2.29 2.43 -2.35 2.23 -2.4 2.04 -2.45 1.85 -2.49 1.65 -2.52 1.46 -2.54 1.26 -2.57 1.07 -2.59 0.88 -2.61 0.68 -2.62 0.49 -2.65 0.3 -2.69 0.1 -2.72 27.09 0 -0.17 4.7 -0.51 4.64 -0.84 4.57 -1.16 4.48 -1.46 4.36 -1.75 4.26 -2.03 4.13 -2.29 4.01 -2.54 3.87 -2.77 3.73 -3 3.59 -3.21 3.45 -3.41 3.31 -3.6 3.16 -3.79 3.01 -3.96 2.86 -4.13 2.72 -4.29 2.56 -4.44 2.41 -4.59 2.25 -4.73 2.09 -4.86 1.93 -4.99 1.76 -5.11 1.59 -5.23 1.42 -5.33 1.24 -5.44 1.07 -5.53 0.88 -5.62 0.69 -5.71 0.5 -5.78 0.3 -5.86 0.1 0 0zm-118.16 -85.66l27.09 0 0 0 0.1 2.72 0.3 2.69 0.49 2.65 0.68 2.62 0.88 2.61 1.07 2.59 1.26 2.57 1.46 2.54 1.65 2.52 1.85 2.49 2.04 2.45 2.23 2.4 2.43 2.35 2.61 2.29 2.79 2.22 2.97 2.15 3.14 2.06 3.3 1.97 3.46 1.88 3.61 1.77 3.76 1.66 3.9 1.55 4.03 1.42 4.16 1.3 4.27 1.16 4.39 1.02 4.49 0.88 4.59 0.73 4.68 0.58 4.76 0.42 4.84 0.26 4.91 0.08 0 27.07 -5.86 -0.1 -5.78 -0.3 -5.71 -0.5 -5.63 -0.69 -5.53 -0.88 -5.44 -1.07 -5.34 -1.24 -5.23 -1.42 -5.11 -1.59 -4.99 -1.76 -4.86 -1.93 -4.73 -2.09 -4.59 -2.25 -4.44 -2.41 -4.29 -2.56 -4.13 -2.72 -3.96 -2.86 -3.79 -3.01 -3.6 -3.16 -3.41 -3.31 -3.21 -3.45 -3 -3.59 -2.77 -3.73 -2.54 -3.87 -2.29 -4.01 -2.03 -4.13 -1.75 -4.26 -1.46 -4.36 -1.16 -4.48 -0.84 -4.57 -0.51 -4.64 -0.17 -4.7 0 0zm118.16 -85.66l0 27.07 0 0 -4.91 0.08 -4.84 0.26 -4.76 0.42 -4.68 0.58 -4.59 0.73 -4.49 0.88 -4.39 1.02 -4.27 1.16 -4.15 1.29 -4.03 1.42 -3.9 1.55 -3.76 1.66 -3.61 1.77 -3.46 1.88 -3.3 1.97 -3.13 2.06 -2.97 2.15 -2.79 2.22 -2.61 2.29 -2.43 2.35 -2.23 2.4 -2.04 2.45 -1.85 2.49 -1.65 2.52 -1.46 2.54 -1.26 2.57 -1.07 2.59 -0.88 2.61 -0.68 2.63 -0.49 2.65 -0.3 2.69 -0.1 2.72 -27.09 0 0.17 -4.7 0.51 -4.64 0.84 -4.57 1.16 -4.48 1.46 -4.37 1.75 -4.26 2.03 -4.14 2.29 -4.01 2.54 -3.87 2.77 -3.73 3 -3.59 3.21 -3.45 3.41 -3.31 3.6 -3.16 3.79 -3.01 3.96 -2.87 4.13 -2.72 4.29 -2.56 4.44 -2.41 4.59 -2.25 4.73 -2.09 4.86 -1.93 4.99 -1.76 5.11 -1.59 5.23 -1.42 5.34 -1.24 5.44 -1.07 5.53 -0.88 5.63 -0.69 5.71 -0.5 5.78 -0.3 5.86 -0.1 0 0z"/>
   </g>
   <g>
    <path class="fil0" d="M832.95 212.07c0,7.47 -6.06,13.53 -13.53,13.53 -7.47,0 -13.53,-6.06 -13.53,-13.53l27.06 0zm0 -140.4l0 140.4 -27.06 0 0 -140.4 21.53 -10.91 5.53 10.91zm-27.06 0c0,-7.47 6.06,-13.53 13.53,-13.53 7.47,0 13.53,6.06 13.53,13.53l-27.06 0zm99.57 79.88l-94.04 -68.98 16.01 -21.81 94.04 68.98 0 21.81 -16.01 0zm16.01 -21.81c6.02,4.42 7.33,12.88 2.91,18.91 -4.42,6.02 -12.89,7.32 -18.91,2.9l16.01 -21.81zm94.04 -47.16l-94.04 68.98 -16.01 -21.81 94.04 -68.98 21.53 10.91 -5.53 10.91zm-16.01 -21.81c6.02,-4.42 14.49,-3.12 18.91,2.9 4.42,6.02 3.12,14.49 -2.91,18.91l-16.01 -21.81zm-5.53 151.3l0 -140.4 27.06 0 0 140.4 -27.06 0zm27.06 0c0,7.47 -6.06,13.53 -13.53,13.53 -7.47,0 -13.53,-6.06 -13.53,-13.53l27.06 0z"/>
   </g>
   <g>
    <path class="fil0" d="M1079.7 71.67c0,-7.47 6.06,-13.53 13.53,-13.53 7.47,0 13.53,6.06 13.53,13.53l-27.06 0zm0 140.4l0 -140.4 27.06 0 0 140.4 -5.43 10.84 -21.62 -10.84zm27.06 0c0,7.47 -6.06,13.53 -13.53,13.53 -7.47,0 -13.53,-6.06 -13.53,-13.53l27.06 0zm182.65 -129.56l-188.08 140.4 -16.19 -21.68 188.08 -140.4 21.62 10.84 -5.43 10.84zm-16.19 -21.68c5.99,-4.47 14.47,-3.24 18.94,2.75 4.47,5.98 3.24,14.46 -2.75,18.93l-16.19 -21.68zm-5.43 151.24l0 -140.4 27.06 0 0 140.4 -27.06 0zm27.06 0c0,7.47 -6.06,13.53 -13.53,13.53 -7.47,0 -13.53,-6.06 -13.53,-13.53l27.06 0z"/>
   </g>
   <g>
    <path class="fil0" d="M1468.43 131.03l-16.15 21.68c-5.98,-4.46 -7.21,-12.94 -2.75,-18.92 4.46,-5.99 12.93,-7.22 18.91,-2.76zm94.04 70.2l-16.15 21.68 -94.04 -70.2 16.15 -21.68 94.04 70.2zm-16.15 21.68l16.15 -21.68c5.98,4.46 7.21,12.94 2.75,18.92 -4.46,5.99 -12.93,7.22 -18.91,2.76z"/>
   </g>
   <g>
    <path class="fil0" d="M1352.79 71.67c0,-7.47 6.06,-13.53 13.53,-13.53 7.47,0 13.53,6.06 13.53,13.53l-27.06 0zm0 140.4l0 -140.4 27.06 0 0 140.4 -5.43 10.84 -21.62 -10.84zm27.06 0c0,7.47 -6.06,13.53 -13.53,13.53 -7.47,0 -13.53,-6.06 -13.53,-13.53l27.06 0zm182.65 -129.56l-188.08 140.4 -16.19 -21.68 188.08 -140.4 16.19 21.68zm-16.19 -21.68c5.99,-4.47 14.47,-3.24 18.94,2.75 4.47,5.98 3.24,14.46 -2.75,18.93l-16.19 -21.68z"/>
   </g>
   <g>
    <path class="fil0" d="M1789.61 179.72c6.1,-4.36 14.6,-2.96 18.97,3.13 4.37,6.09 2.97,14.56 -3.13,18.92l-15.84 -22.05zm-72.66 47.84l0 -27.12 0 0 2.63 -0.02 2.63 -0.07 2.61 -0.11 2.59 -0.16 2.59 -0.2 2.57 -0.24 2.56 -0.29 2.54 -0.33 2.52 -0.37 2.49 -0.41 2.48 -0.46 2.46 -0.5 2.43 -0.53 2.4 -0.58 2.37 -0.61 2.35 -0.66 2.32 -0.69 2.28 -0.73 2.25 -0.77 2.22 -0.8 2.18 -0.84 2.14 -0.87 2.11 -0.91 2.06 -0.94 2.02 -0.97 1.98 -1 1.93 -1.04 1.89 -1.07 1.84 -1.1 1.79 -1.13 1.75 -1.15 1.69 -1.18 15.84 22.05 -2.24 1.56 -2.29 1.51 -2.34 1.46 -2.38 1.42 -2.42 1.37 -2.46 1.32 -2.51 1.27 -2.54 1.22 -2.58 1.17 -2.61 1.13 -2.65 1.08 -2.68 1.03 -2.71 0.98 -2.74 0.93 -2.78 0.89 -2.8 0.84 -2.82 0.79 -2.86 0.74 -2.89 0.69 -2.91 0.64 -2.92 0.59 -2.95 0.54 -2.97 0.49 -2.99 0.44 -3.01 0.39 -3.02 0.34 -3.04 0.29 -3.05 0.24 -3.07 0.19 -3.08 0.13 -3.09 0.08 -3.1 0.03 0 0zm-123.17 -85.69l27.19 0 0 0 0.1 2.68 0.31 2.64 0.5 2.61 0.71 2.59 0.9 2.58 1.11 2.57 1.31 2.55 1.52 2.54 1.73 2.51 1.94 2.49 2.14 2.45 2.35 2.41 2.55 2.36 2.75 2.3 2.94 2.23 3.13 2.16 3.31 2.08 3.48 1.99 3.66 1.89 3.81 1.79 3.97 1.67 4.12 1.56 4.26 1.44 4.39 1.31 4.51 1.17 4.63 1.03 4.74 0.89 4.85 0.74 4.94 0.58 5.03 0.42 5.11 0.26 5.18 0.08 0 27.12 -6.09 -0.1 -6.02 -0.3 -5.94 -0.5 -5.85 -0.69 -5.76 -0.87 -5.66 -1.06 -5.55 -1.24 -5.44 -1.41 -5.32 -1.59 -5.19 -1.75 -5.06 -1.91 -4.92 -2.08 -4.78 -2.24 -4.62 -2.39 -4.47 -2.55 -4.3 -2.7 -4.12 -2.85 -3.95 -3 -3.76 -3.15 -3.56 -3.29 -3.35 -3.44 -3.13 -3.59 -2.9 -3.73 -2.66 -3.87 -2.41 -4.02 -2.13 -4.15 -1.84 -4.28 -1.54 -4.4 -1.22 -4.51 -0.89 -4.61 -0.54 -4.69 -0.18 -4.75 0 0zm123.17 -85.69l0 27.12 0 0 -5.18 0.08 -5.11 0.26 -5.03 0.42 -4.94 0.58 -4.85 0.74 -4.74 0.89 -4.63 1.03 -4.52 1.17 -4.39 1.31 -4.26 1.44 -4.12 1.56 -3.97 1.67 -3.81 1.79 -3.66 1.89 -3.49 1.99 -3.31 2.07 -3.13 2.16 -2.94 2.24 -2.75 2.3 -2.55 2.36 -2.35 2.41 -2.14 2.45 -1.94 2.49 -1.73 2.52 -1.52 2.53 -1.31 2.56 -1.11 2.57 -0.9 2.58 -0.71 2.59 -0.5 2.61 -0.31 2.64 -0.1 2.68 -27.19 0 0.18 -4.75 0.54 -4.69 0.89 -4.61 1.22 -4.51 1.54 -4.4 1.84 -4.28 2.13 -4.15 2.41 -4.02 2.66 -3.87 2.9 -3.73 3.13 -3.59 3.35 -3.44 3.56 -3.29 3.76 -3.15 3.95 -3 4.13 -2.85 4.3 -2.7 4.47 -2.55 4.63 -2.39 4.78 -2.24 4.92 -2.08 5.06 -1.91 5.19 -1.75 5.32 -1.58 5.44 -1.41 5.55 -1.24 5.66 -1.06 5.76 -0.87 5.85 -0.69 5.94 -0.5 6.02 -0.3 6.09 -0.1 0 0zm86.14 24.15l-15.26 22.45 -1.69 -1.12 -1.74 -1.09 -1.78 -1.06 -1.83 -1.04 -1.87 -1 -1.91 -0.98 -1.95 -0.94 -1.99 -0.92 -2.03 -0.89 -2.06 -0.85 -2.1 -0.82 -2.13 -0.79 -2.17 -0.75 -2.19 -0.72 -2.23 -0.68 -2.26 -0.65 -2.28 -0.61 -2.31 -0.58 -2.33 -0.54 -2.36 -0.5 -2.38 -0.47 -2.4 -0.42 -2.43 -0.39 -2.44 -0.35 -2.45 -0.31 -2.48 -0.27 -2.49 -0.23 -2.5 -0.19 -2.51 -0.15 -2.52 -0.1 -2.54 -0.06 -2.54 -0.02 0 -27.12 3 0.03 2.98 0.08 2.98 0.12 2.97 0.17 2.95 0.22 2.94 0.27 2.92 0.32 2.91 0.36 2.9 0.41 2.88 0.46 2.86 0.51 2.84 0.55 2.82 0.6 2.79 0.65 2.77 0.69 2.75 0.74 2.72 0.78 2.7 0.83 2.68 0.88 2.64 0.92 2.62 0.96 2.59 1.01 2.56 1.05 2.52 1.1 2.48 1.14 2.46 1.19 2.42 1.24 2.38 1.28 2.34 1.33 2.31 1.37 2.26 1.42 2.22 1.46zm0 0c6.21,4.2 7.83,12.63 3.62,18.83 -4.21,6.2 -12.67,7.82 -18.88,3.61l15.26 -22.45z"/>
   </g>
   <g>
    <g>
     <path class="fil0" d="M351.16 200.44c7.47,0 13.52,6.07 13.52,13.55 0,7.48 -6.06,13.55 -13.52,13.55l0 -27.09zm-77.9 -23.12l27.05 0 0 0 0.05 1.45 0.14 1.31 0.22 1.21 0.3 1.11 0.37 1.04 0.44 0.99 0.51 0.95 0.6 0.92 0.69 0.91 0.8 0.91 0.9 0.9 1.02 0.89 1.16 0.89 1.29 0.87 1.42 0.86 1.55 0.83 1.68 0.8 1.81 0.77 1.93 0.73 2.05 0.69 2.17 0.64 2.28 0.59 2.37 0.54 2.48 0.49 2.57 0.43 2.65 0.38 2.74 0.32 2.81 0.26 2.88 0.2 2.94 0.14 3 0.09 3.06 0.03 0 27.09 -3.57 -0.03 -3.54 -0.1 -3.5 -0.17 -3.46 -0.24 -3.42 -0.32 -3.37 -0.39 -3.33 -0.47 -3.28 -0.55 -3.23 -0.63 -3.18 -0.72 -3.11 -0.81 -3.05 -0.9 -3 -1 -2.93 -1.11 -2.86 -1.22 -2.79 -1.33 -2.71 -1.46 -2.63 -1.59 -2.54 -1.73 -2.43 -1.87 -2.33 -2.03 -2.19 -2.19 -2.05 -2.34 -1.89 -2.5 -1.71 -2.66 -1.51 -2.8 -1.3 -2.93 -1.07 -3.06 -0.84 -3.16 -0.6 -3.24 -0.36 -3.31 -0.12 -3.35 0 0zm77.9 -50.22l0 27.09 -3.06 0.03 -3.01 0.09 -2.94 0.14 -2.88 0.2 -2.81 0.26 -2.74 0.31 -2.65 0.37 -2.57 0.43 -2.48 0.48 -2.37 0.54 -2.28 0.59 -2.17 0.64 -2.05 0.68 -1.93 0.73 -1.81 0.77 -1.68 0.8 -1.55 0.83 -1.42 0.85 -1.28 0.87 -1.16 0.89 -1.02 0.89 -0.9 0.9 -0.8 0.91 -0.69 0.91 -0.59 0.92 -0.51 0.95 -0.44 0.99 -0.37 1.04 -0.3 1.12 -0.22 1.22 -0.14 1.33 -0.05 1.46 -27.05 0 0.12 -3.36 0.36 -3.31 0.6 -3.24 0.83 -3.16 1.07 -3.06 1.3 -2.94 1.51 -2.81 1.71 -2.67 1.89 -2.51 2.05 -2.34 2.2 -2.19 2.33 -2.03 2.43 -1.87 2.54 -1.73 2.63 -1.59 2.72 -1.46 2.79 -1.33 2.86 -1.21 2.93 -1.1 3 -1 3.06 -0.9 3.11 -0.81 3.18 -0.72 3.23 -0.63 3.28 -0.55 3.33 -0.47 3.37 -0.39 3.42 -0.31 3.46 -0.24 3.5 -0.17 3.53 -0.1 3.57 -0.03zm0 0c7.47,0 13.52,6.07 13.52,13.55 0,7.48 -6.06,13.55 -13.52,13.55l0 -27.09z"/>
    </g>
    <g>
     <path class="fil0" d="M438.68 148.49c1.83,-7.27 9.4,-11.72 16.91,-9.94 7.5,1.77 12.1,9.11 10.27,16.37l-27.18 -6.43zm-88.16 78.98l1.28 -27.07 1.51 0.04 1.85 -0.01 2.13 -0.07 2.37 -0.14 2.59 -0.22 2.79 -0.3 2.95 -0.39 3.1 -0.49 3.22 -0.59 3.32 -0.69 3.4 -0.8 3.46 -0.91 3.5 -1.03 3.52 -1.16 3.52 -1.28 3.49 -1.41 3.45 -1.54 3.39 -1.67 3.32 -1.81 3.22 -1.94 3.11 -2.08 2.99 -2.23 2.85 -2.37 2.7 -2.51 2.54 -2.66 2.37 -2.82 2.19 -2.98 2.01 -3.16 1.81 -3.34 1.61 -3.55 1.4 -3.78 1.17 -4.02 27.18 6.43 -1.69 5.82 -2.05 5.56 -2.4 5.29 -2.72 5.01 -3 4.72 -3.26 4.44 -3.49 4.15 -3.7 3.87 -3.87 3.6 -4.02 3.33 -4.14 3.08 -4.24 2.84 -4.32 2.61 -4.37 2.38 -4.41 2.17 -4.42 1.97 -4.42 1.78 -4.4 1.6 -4.36 1.43 -4.31 1.27 -4.23 1.12 -4.14 0.98 -4.04 0.84 -3.92 0.71 -3.79 0.6 -3.64 0.48 -3.46 0.38 -3.29 0.28 -3.1 0.18 -2.9 0.1 -2.7 0.01 -2.53 -0.07zm0 0c-7.72,-0.34 -13.68,-6.68 -13.33,-14.16 0.35,-7.47 6.9,-13.25 14.61,-12.91l-1.28 27.07z"/>
    </g>
   </g>
   <g>
    <path class="fil0" d="M442.56 127.19c7.48,0 13.55,6.06 13.55,13.53 -0,7.47 -6.07,13.52 -13.56,13.52l0.01 -27.05zm-93.64 -0.04l93.64 0.04 -0.01 27.05 -93.64 -0.04 0.01 -27.05zm-0.01 27.05c-7.48,-0 -13.55,-6.06 -13.55,-13.53 0,-7.47 6.07,-13.52 13.56,-13.52l-0.01 27.05z"/>
   </g>
   <g>
    <path class="fil0" d="M470.88 170.55l-27.04 -1.09c0.3,-7.46 6.6,-13.27 14.06,-12.97 7.47,0.3 13.27,6.6 12.97,14.06zm-7.67 46.01l-0.01 -0.01 -1.2 -1.17 -1.16 -1.2 -1.12 -1.22 -1.09 -1.24 -1.06 -1.27 -1.02 -1.29 -0.99 -1.32 -0.95 -1.35 -0.91 -1.36 -0.87 -1.38 -0.83 -1.4 -0.8 -1.42 -0.76 -1.45 -0.72 -1.46 -0.68 -1.48 -0.64 -1.5 -0.6 -1.51 -0.56 -1.53 -0.52 -1.54 -0.48 -1.56 -0.44 -1.58 -0.39 -1.58 -0.35 -1.6 -0.31 -1.6 -0.27 -1.61 -0.22 -1.63 -0.18 -1.62 -0.14 -1.64 -0.09 -1.65 -0.05 -1.65 0 -1.65 0.04 -1.65 27.04 1.09 -0.03 0.92 0 0.91 0.03 0.91 0.05 0.9 0.08 0.91 0.1 0.91 0.12 0.89 0.15 0.89 0.17 0.89 0.2 0.88 0.22 0.88 0.24 0.87 0.27 0.86 0.29 0.87 0.31 0.85 0.34 0.85 0.36 0.84 0.38 0.83 0.41 0.83 0.43 0.81 0.45 0.8 0.47 0.79 0.5 0.79 0.52 0.78 0.54 0.76 0.56 0.75 0.59 0.74 0.6 0.73 0.63 0.71 0.65 0.71 0.67 0.69 0.69 0.67 -0.01 -0.01 -18.63 19.62zm8.37 6.72l-0.27 -0.19 -0.29 -0.2 -0.27 -0.19 -0.28 -0.2 -0.27 -0.19 -0.27 -0.19 -0.27 -0.19 -0.27 -0.19 -0.3 -0.22 -0.27 -0.2 -0.23 -0.18 -0.29 -0.22 -0.26 -0.2 -0.26 -0.2 -0.29 -0.23 -0.23 -0.18 -0.28 -0.23 -0.28 -0.23 -0.23 -0.19 -0.26 -0.21 -0.27 -0.23 -0.26 -0.22 -0.22 -0.19 -0.25 -0.21 -0.28 -0.24 -0.27 -0.24 -0.25 -0.22 -0.22 -0.2 -0.25 -0.22 -0.27 -0.25 -0.24 -0.23 -0.24 -0.23 18.63 -19.62 0.14 0.14 0.15 0.14 0.12 0.12 0.15 0.14 0.17 0.16 0.15 0.13 0.13 0.11 0.12 0.11 0.15 0.13 0.18 0.15 0.15 0.13 0.13 0.11 0.16 0.13 0.18 0.15 0.13 0.11 0.13 0.1 0.18 0.15 0.13 0.1 0.16 0.12 0.16 0.13 0.13 0.1 0.19 0.14 0.16 0.12 0.13 0.1 0.16 0.12 0.16 0.12 0.16 0.12 0.17 0.12 0.16 0.11 0.17 0.12 0.15 0.1 0.17 0.11 -15.14 22.42zm0 0l15.14 -22.42c6.19,4.18 7.82,12.59 3.64,18.78 -4.18,6.19 -12.59,7.82 -18.78,3.64z"/>
   </g>
   <g>
    <path class="fil0" d="M443.79 146.53c0,-7.47 6.08,-13.52 13.58,-13.52 7.5,0 13.58,6.06 13.58,13.52l-27.16 0zm0 33l0 -33 27.16 0 0 33 -27.16 0zm27.16 0c0,7.47 -6.08,13.52 -13.58,13.52 -7.5,0 -13.58,-6.06 -13.58,-13.52l27.16 0z"/>
   </g>
  </g>
  <path class="fil0" d="M1925.17 61.79c0,7.38 -2.47,13.49 -7.43,18.37 -4.96,4.88 -11.17,7.32 -18.62,7.32 -3.34,0 -6.45,-0.36 -9.3,-1.08 -2.87,-0.72 -5.53,-1.81 -8,-3.28l0 25.97 -19.35 0 0 -82.03c0,-4.13 0.59,-7.79 1.74,-11.02 1.17,-3.23 3.02,-6.07 5.56,-8.54 2.43,-2.36 5.64,-4.19 9.64,-5.53 4,-1.32 8.66,-1.98 13.99,-1.98 8.26,0 14.9,1.83 19.92,5.49 5.04,3.68 7.54,8.75 7.54,15.28 0,4.34 -1.15,8.26 -3.45,11.73 -2.3,3.49 -5.51,5.92 -9.58,7.32l0 0.94c5.41,1.07 9.66,3.41 12.73,7.03 3.07,3.62 4.6,8.3 4.6,14zm-19.8 -1.55c0,-2.47 -0.45,-4.53 -1.34,-6.17 -0.89,-1.62 -2.09,-2.9 -3.6,-3.83 -1.53,-0.89 -3.32,-1.51 -5.39,-1.85 -2.08,-0.36 -4.4,-0.53 -6.94,-0.53l-1.4 0 0 -12.9c4.77,0 8.36,-0.87 10.77,-2.62 2.4,-1.74 3.6,-4.75 3.6,-9.02 0,-3.07 -0.87,-5.45 -2.58,-7.13 -1.73,-1.68 -3.87,-2.51 -6.39,-2.51 -2.09,0 -3.75,0.36 -4.94,1.06 -1.19,0.7 -2.23,1.68 -3.11,2.98 -0.77,1.09 -1.34,2.51 -1.68,4.21 -0.36,1.71 -0.53,3.38 -0.53,5l0 44.74c1.19,0.53 2.6,0.93 4.24,1.23 1.66,0.28 3.15,0.43 4.53,0.43 1.85,0 3.73,-0.26 5.66,-0.77 1.92,-0.51 3.51,-1.26 4.73,-2.26 1.47,-1.23 2.57,-2.53 3.3,-3.92 0.72,-1.4 1.07,-3.45 1.07,-6.13z"/>
 </g>
</svg>
