<?xml version="1.0" encoding="UTF-8"?>
<!DOCTYPE svg PUBLIC "-//W3C//DTD SVG 1.1//EN" "http://www.w3.org/Graphics/SVG/1.1/DTD/svg11.dtd">
<!-- Creator: CorelDRAW 2018 (64-Bit) -->
<svg xmlns="http://www.w3.org/2000/svg" xml:space="preserve" width="13.6885mm" height="12.5953mm" version="1.1" style="shape-rendering:geometricPrecision; text-rendering:geometricPrecision; image-rendering:optimizeQuality; fill-rule:evenodd; clip-rule:evenodd"
viewBox="0 0 106.74 98.22"
 xmlns:xlink="http://www.w3.org/1999/xlink">
 <defs>
  <style type="text/css">
   <![CDATA[
    .str0 {stroke:white;stroke-width:8.25;stroke-miterlimit:22.9256}
    .fil1 {fill:none}
    .fil0 {fill:white}
   ]]>
  </style>
 </defs>
 <g id="Слой_x0020_1">
  <metadata id="CorelCorpID_0Corel-Layer"/>
  <g id="_2030366623600">
   <path class="fil0" d="M31.83 29.34l-0.01 43.37 37.53 -37.53c-0.02,-5.59 -0.04,-9.9 -0.04,-11.76 0,-2.74 0.33,-10.84 -0.3,-12.96 -1.07,-3.62 -4.31,-5.56 -8.08,-4.51 -2.02,0.56 -28.19,22.05 -29.09,23.39zm6.45 48.58l8.25 6.29c3.2,2.35 12.15,10.23 15.51,10.72 3.59,0.52 6.86,-2.22 7.23,-5.8 0.24,-2.32 0.2,-24.24 0.13,-42.32l-31.12 31.12z"/>
   <path class="fil0" d="M24.31 73.12l0.08 -43.92c-2.58,-0.38 -7.6,-0.13 -10.36,-0.11 -12.66,0.11 -10.13,13.13 -10.13,21.92 0,8.74 -2.51,22.16 9.79,22.2 3.07,0.01 7.75,0.26 10.62,-0.09z"/>
   <path class="fil0" d="M90.14 26.06c0.61,0.71 1.19,1.36 1.54,1.83 9.08,11.99 9.29,32.09 0.12,44.73 -1.1,1.52 -4,4.29 -4.36,5.7l5.31 5.38c2.71,-1.48 8.33,-10.55 9.76,-13.84 5.72,-13.16 5.53,-25.65 0.12,-38.81 -0.91,-2.2 -3.95,-7.43 -6.6,-10.88l-5.89 5.89z"/>
   <path class="fil0" d="M79.07 37.13c0.87,1.24 1.74,2.53 2.17,3.49 1.37,3.07 2.09,6.33 2.11,9.73 0.05,10.46 -5.61,14.56 -6.83,17.08l5.46 5.49c5.79,-4.58 9.49,-14.79 9.53,-22.24 0.04,-7.46 -2.28,-14.03 -6.4,-19.59l-6.04 6.04z"/>
  </g>
  <line class="fil1 str0" x1="2.92" y1="95.3" x2="95.3" y2= "2.92" />
 </g>
</svg>
