<?xml version="1.0" encoding="UTF-8"?>
<!DOCTYPE svg PUBLIC "-//W3C//DTD SVG 1.1//EN" "http://www.w3.org/Graphics/SVG/1.1/DTD/svg11.dtd">
<!-- Creator: CorelDRAW 2018 (64-Bit) -->
<svg xmlns="http://www.w3.org/2000/svg" xml:space="preserve" width="19.4783mm" height="10.3626mm" version="1.1" style="shape-rendering:geometricPrecision; text-rendering:geometricPrecision; image-rendering:optimizeQuality; fill-rule:evenodd; clip-rule:evenodd"
viewBox="0 0 123.6 65.76"
 xmlns:xlink="http://www.w3.org/1999/xlink">
 <defs>
  <style type="text/css">
   <![CDATA[
    .fil1 {fill:white}
    .fil0 {fill:white;fill-rule:nonzero}
   ]]>
  </style>
 </defs>
 <g id="Слой_x0020_1">
  <metadata id="CorelCorpID_0Corel-Layer"/>
  <path class="fil0" d="M15.26 17.62l77.52 0c4.18,0 8,1.72 10.77,4.48l0.01 0.01c2.76,2.77 4.48,6.58 4.48,10.77 0,4.19 -1.72,8 -4.48,10.77l-0.01 0.01c-2.77,2.76 -6.58,4.48 -10.77,4.48l-77.52 0c-4.19,0 -8,-1.72 -10.77,-4.48l-0.01 -0.01c-2.77,-2.77 -4.48,-6.58 -4.48,-10.77 0,-4.19 1.72,-8 4.48,-10.77l0.01 -0.01c2.77,-2.77 6.58,-4.48 10.77,-4.48zm77.52 6.72l-77.52 0c-2.36,0 -4.49,0.96 -6.03,2.5l-0.01 0.01c-1.54,1.54 -2.5,3.68 -2.5,6.03 0,2.36 0.96,4.49 2.5,6.03l0.01 0.01c1.54,1.54 3.68,2.5 6.03,2.5l77.52 0c2.35,0 4.49,-0.96 6.03,-2.5l0.01 -0.01c1.54,-1.54 2.5,-3.68 2.5,-6.03 0,-2.36 -0.96,-4.49 -2.5,-6.03l-0.01 -0.01c-1.54,-1.54 -3.68,-2.5 -6.03,-2.5z"/>
  <circle class="fil1" cx="90.72" cy="32.88" r="32.88"/>
 </g>
</svg>
